<?xml version="1.0" encoding="UTF-8"?>
<svg width="512" height="512" viewBox="0 0 512 512" fill="none" xmlns="http://www.w3.org/2000/svg">
  <rect width="512" height="512" rx="100" fill="#2563EB"/>
  <path d="M128 256C128 185.3 185.3 128 256 128C326.7 128 384 185.3 384 256C384 326.7 326.7 384 256 384C185.3 384 128 326.7 128 256Z" fill="white"/>
  <path d="M256 170.667C207.4 170.667 168 210.067 168 258.667C168 307.2 207.4 346.667 256 346.667C304.6 346.667 344 307.2 344 258.667C344 210.067 304.6 170.667 256 170.667ZM256 320C224 320 298.7 320 256 320C223.1 320 197.3 293.333 197.3 261.333C197.3 229.333 223.1 202.667 256 202.667C288 202.667 314.7 229.333 314.7 261.333C314.7 293.333 288 320 256 320Z" fill="#2563EB"/>
  <path d="M341.3 192C358.9 192 373.3 177.6 373.3 160C373.3 142.4 358.9 128 341.3 128C323.7 128 309.3 142.4 309.3 160C309.3 177.6 323.7 192 341.3 192Z" fill="white"/>
</svg>
